<?xml version="1.0" standalone="no"?>
<!DOCTYPE svg PUBLIC "-//W3C//DTD SVG 20010904//EN"
 "http://www.w3.org/TR/2001/REC-SVG-20010904/DTD/svg10.dtd">
<svg version="1.0" xmlns="http://www.w3.org/2000/svg"
 width="512.000000pt" height="512.000000pt" viewBox="0 0 512.000000 512.000000"
 preserveAspectRatio="xMidYMid meet">
<metadata>
Created by potrace 1.14, written by Peter Selinger 2001-2017
</metadata>
<g transform="translate(0.000000,512.000000) scale(0.100000,-0.100000)"
fill="#000000" stroke="none">
<path d="M2358 4795 c-2 -1 -39 -5 -83 -9 -527 -44 -1063 -244 -1460 -545 -33
-25 -65 -50 -72 -56 -6 -5 -44 -39 -85 -75 -122 -108 -358 -383 -358 -418 0
-6 -4 -12 -8 -14 -10 -4 -90 -145 -126 -223 -60 -129 -124 -331 -141 -450 -4
-22 -9 -51 -11 -65 -10 -46 -12 -334 -3 -410 40 -340 186 -677 412 -953 49
-60 54 -71 50 -104 -12 -109 -57 -278 -95 -363 -87 -196 -167 -325 -288 -469
-81 -95 -89 -113 -85 -173 2 -37 11 -59 32 -86 43 -53 86 -65 213 -58 125 7
144 10 280 42 58 13 116 27 129 30 116 25 535 210 658 289 21 13 76 49 122 79
l84 54 41 -15 c89 -32 166 -54 311 -87 117 -27 140 -31 220 -42 28 -3 59 -8
70 -10 127 -25 697 -25 795 1 8 2 38 6 65 10 275 34 646 152 917 294 86 45
269 156 308 188 8 7 33 26 55 42 22 17 45 34 50 38 87 67 238 214 326 318 175
209 310 465 380 724 43 158 57 284 54 481 -4 180 -14 251 -69 460 -13 47 -64
177 -102 255 -203 425 -565 775 -1054 1020 -185 93 -506 206 -650 230 -19 3
-42 8 -50 10 -16 4 -51 11 -109 21 -18 3 -41 7 -50 9 -9 1 -47 6 -86 10 -38 4
-79 10 -90 12 -21 5 -492 13 -497 8z m-983 -1770 c119 -32 217 -161 221 -294
5 -143 -82 -268 -216 -314 -65 -22 -164 -16 -233 16 -198 90 -246 357 -92 510
82 82 203 113 320 82z m1317 -17 c61 -28 104 -66 142 -126 29 -46 36 -73 41
-155 14 -231 -233 -393 -448 -294 -198 90 -246 357 -92 510 95 94 236 120 357
65z m1279 0 c230 -105 252 -422 38 -560 -63 -40 -179 -55 -264 -33 -40 10
-117 63 -149 102 -48 57 -73 130 -71 208 4 229 238 378 446 283z"/>
</g>
</svg>
